<svg width="107" height="129" viewBox="0 0 107 129" fill="none" xmlns="http://www.w3.org/2000/svg">
<path d="M5.63158 129C4.13799 129 2.70558 128.32 1.64945 127.111C0.593326 125.901 0 124.261 0 122.55V6.45C0 4.73935 0.593326 3.09877 1.64945 1.88916C2.70558 0.679551 4.13799 0 5.63158 0H84.4737C85.9673 0 87.3997 0.679551 88.4558 1.88916C89.5119 3.09877 90.1053 4.73935 90.1053 6.45V25.8H78.8421V12.9H11.2632V116.1H78.8421V103.2H90.1053V122.55C90.1053 124.261 89.5119 125.901 88.4558 127.111C87.3997 128.32 85.9673 129 84.4737 129H5.63158ZM78.8421 90.3V70.95H39.4211V58.05H78.8421V38.7L107 64.5L78.8421 90.3Z" fill="#E94A47"/>
</svg>
