<svg width="1440" height="1024" viewBox="0 0 1440 1024" fill="none" xmlns="http://www.w3.org/2000/svg">
<g clip-path="url(#clip0_345_1179)">
<rect width="1440" height="1024" fill="white"/>
<path d="M563.312 653H570.695V643.514H575.706C582.701 643.514 587.071 639.368 587.071 633.029C587.071 626.75 582.79 622.455 575.93 622.455H563.312V653ZM570.695 637.697V628.406H574.334C577.645 628.406 579.42 630.195 579.42 633.029C579.42 635.848 577.645 637.697 574.334 637.697H570.695ZM596.348 653.388C599.54 653.388 601.747 652.15 603 649.808H603.179V653H610.04V637.429C610.04 632.582 605.729 629.793 599.898 629.793C593.738 629.793 590.248 632.895 589.666 637.071L596.393 637.31C596.706 635.848 597.914 634.953 599.838 634.953C601.628 634.953 602.761 635.818 602.761 637.354V637.429C602.761 638.831 601.24 639.129 597.332 639.472C592.694 639.86 588.816 641.575 588.816 646.646C588.816 651.18 591.963 653.388 596.348 653.388ZM598.6 648.615C596.915 648.615 595.722 647.81 595.722 646.288C595.722 644.812 596.885 643.917 598.958 643.604C600.315 643.41 601.986 643.112 602.806 642.679V644.857C602.806 647.094 600.927 648.615 598.6 648.615ZM625.178 662.068C632.084 662.068 636.797 658.921 636.797 653.089V630.091H629.533V634.013H629.325C628.445 631.911 626.446 629.793 622.837 629.793C618.049 629.793 613.709 633.477 613.709 641.516C613.709 649.301 617.84 652.687 622.866 652.687C626.237 652.687 628.489 651.121 629.354 649.003H629.608V653.03C629.608 655.953 627.818 657.012 625.372 657.012C623.031 657.012 621.629 656.117 621.241 654.7L614.335 655.088C614.872 659.1 618.646 662.068 625.178 662.068ZM625.402 647.377C622.702 647.377 621.196 645.185 621.196 641.516C621.196 637.862 622.688 635.49 625.402 635.49C628.072 635.49 629.623 637.802 629.623 641.516C629.623 645.2 628.057 647.377 625.402 647.377ZM652.155 653.433C658.166 653.433 662.118 650.524 662.954 646.02L656.257 645.826C655.69 647.347 654.199 648.168 652.29 648.168C649.486 648.168 647.756 646.303 647.756 643.499V643.305H663.028V641.486C663.028 633.939 658.434 629.793 651.932 629.793C645.011 629.793 640.567 634.536 640.567 641.635C640.567 648.973 644.952 653.433 652.155 653.433ZM647.756 639.07C647.86 636.788 649.665 635.058 652.081 635.058C654.482 635.058 656.212 636.728 656.242 639.07H647.756ZM683.07 639.935C683.085 637.325 684.606 635.773 686.918 635.773C689.23 635.773 690.602 637.295 690.587 639.83V653H697.88V638.398C697.895 633.238 694.748 629.793 689.931 629.793C686.545 629.793 683.98 631.508 682.966 634.297H682.712V630.091H675.777V653H683.07V639.935ZM713.09 653.433C720.294 653.433 724.664 648.675 724.664 641.62C724.664 634.55 720.294 629.793 713.09 629.793C705.886 629.793 701.516 634.55 701.516 641.62C701.516 648.675 705.886 653.433 713.09 653.433ZM713.134 647.929C710.435 647.929 708.943 645.364 708.943 641.575C708.943 637.772 710.435 635.192 713.134 635.192C715.744 635.192 717.236 637.772 717.236 641.575C717.236 645.364 715.744 647.929 713.134 647.929ZM741.331 630.091H737.199V624.602H729.906V630.091H726.878V635.46H729.906V646.602C729.861 651.24 732.874 653.567 738.02 653.328C739.78 653.239 741.047 652.881 741.748 652.672L740.645 647.407C740.331 647.482 739.601 647.631 739.049 647.631C737.871 647.631 737.199 647.153 737.199 645.796V635.46H741.331V630.091ZM767.096 630.091H762.726V628.808C762.726 627.496 763.263 626.69 764.963 626.69C765.649 626.69 766.485 626.839 767.021 627.004L768.185 621.664C767.32 621.425 765.336 621.023 763.323 621.023C758.654 621.023 755.448 623.618 755.448 628.928V630.091H752.36V635.46H755.448V653H762.726V635.46H767.096V630.091ZM780.519 653.433C787.723 653.433 792.093 648.675 792.093 641.62C792.093 634.55 787.723 629.793 780.519 629.793C773.316 629.793 768.945 634.55 768.945 641.62C768.945 648.675 773.316 653.433 780.519 653.433ZM780.564 647.929C777.865 647.929 776.373 645.364 776.373 641.575C776.373 637.772 777.865 635.192 780.564 635.192C783.174 635.192 784.666 637.772 784.666 641.575C784.666 645.364 783.174 647.929 780.564 647.929ZM810.61 643.112C810.61 645.781 808.91 647.273 806.747 647.273C804.51 647.273 803.138 645.751 803.123 643.261V630.091H795.829V644.692C795.844 649.868 798.991 653.298 803.704 653.298C807.135 653.298 809.685 651.538 810.699 648.734H810.938V653H817.888V630.091H810.61V643.112ZM829.824 639.935C829.839 637.325 831.36 635.773 833.672 635.773C835.984 635.773 837.356 637.295 837.341 639.83V653H844.634V638.398C844.649 633.238 841.502 629.793 836.685 629.793C833.299 629.793 830.734 631.508 829.719 634.297H829.466V630.091H822.531V653H829.824V639.935ZM857.517 653.328C860.977 653.328 863.035 651.404 863.96 649.286H864.184V653H871.403V622.455H864.109V634.013H863.96C863.095 631.911 861.096 629.793 857.487 629.793C852.699 629.793 848.359 633.477 848.359 641.56C848.359 649.361 852.461 653.328 857.517 653.328ZM860.052 647.646C857.353 647.646 855.846 645.244 855.846 641.545C855.846 637.862 857.338 635.49 860.052 635.49C862.722 635.49 864.273 637.802 864.273 641.545C864.273 645.259 862.707 647.646 860.052 647.646Z" fill="#201F1F"/>
<path d="M645.472 683.608H647.504V698.424H645.472V683.608ZM641.136 689H643.12V690.872H641.136V689ZM642.528 683.896H644.528V697.736H642.528V683.896ZM634.752 685.272H641.488V686.968H634.752V685.272ZM634.72 695.064L634.496 693.336C636.352 693.336 639.472 693.288 641.712 692.984L641.856 694.52C639.552 695.016 636.544 695.064 634.72 695.064ZM635.664 686.36H637.568V693.784H635.664V686.36ZM638.64 686.36H640.56V693.784H638.64V686.36ZM659.519 683.592H661.663V698.456H659.519V683.592ZM653.679 684.632C655.919 684.632 657.567 686.68 657.567 689.912C657.567 693.176 655.919 695.224 653.679 695.224C651.439 695.224 649.791 693.176 649.791 689.912C649.791 686.68 651.439 684.632 653.679 684.632ZM653.679 686.568C652.575 686.568 651.823 687.736 651.823 689.912C651.823 692.12 652.575 693.304 653.679 693.304C654.783 693.304 655.519 692.12 655.519 689.912C655.519 687.736 654.783 686.568 653.679 686.568ZM667.646 685.944H669.342V687.608C669.342 691.032 667.95 694.376 665.166 695.64L663.965 693.96C666.446 692.856 667.646 690.12 667.646 687.608V685.944ZM668.126 685.944H669.806V687.608C669.806 690.008 670.99 692.568 673.47 693.592L672.318 695.272C669.502 694.056 668.126 690.904 668.126 687.608V685.944ZM664.558 685.032H672.862V686.776H664.558V685.032ZM674.238 683.608H676.382V698.424H674.238V683.608ZM678.796 690.248H692.22V691.8H678.796V690.248ZM680.3 692.536H690.62V696.056H682.444V697.32H680.332V694.712H688.524V693.976H680.3V692.536ZM680.332 696.872H691.036V698.312H680.332V696.872ZM680.444 683.864H690.588V687.352H682.572V688.568H680.46V686.024H688.492V685.288H680.444V683.864ZM680.46 688.12H690.86V689.56H680.46V688.12ZM700.281 686.072H701.993V686.616C701.993 689.128 700.649 691.336 697.817 692.104L696.84 690.44C699.241 689.8 700.281 688.216 700.281 686.616V686.072ZM700.681 686.072H702.409V686.616C702.409 688.088 703.433 689.592 705.817 690.2L704.873 691.832C702.009 691.112 700.681 689 700.681 686.616V686.072ZM697.368 685.032H705.321V686.696H697.368V685.032ZM700.281 683.56H702.409V685.8H700.281V683.56ZM706.489 683.608H708.617V692.04H706.489V683.608ZM708.025 686.92H710.585V688.664H708.025V686.92ZM702.713 693.384H704.505V693.736C704.505 696.04 702.585 697.912 699.017 698.376L698.249 696.76C701.337 696.392 702.713 695.016 702.713 693.736V693.384ZM703.177 693.384H704.985V693.736C704.985 694.968 706.393 696.392 709.433 696.792L708.681 698.408C705.097 697.944 703.177 695.976 703.177 693.736V693.384ZM698.873 692.68H708.809V694.36H698.873V692.68ZM718.375 683.816C721.751 683.816 723.735 684.712 723.735 686.344C723.735 687.976 721.751 688.872 718.375 688.872C714.983 688.872 713.015 687.976 713.015 686.344C713.015 684.712 714.983 683.816 718.375 683.816ZM718.375 685.368C716.231 685.368 715.223 685.688 715.223 686.344C715.223 687.032 716.231 687.32 718.375 687.32C720.519 687.32 721.527 687.032 721.527 686.344C721.527 685.688 720.519 685.368 718.375 685.368ZM711.671 689.56H725.063V691.24H711.671V689.56ZM713.207 692.072H723.447V695.88H715.319V697.192H713.223V694.408H721.351V693.656H713.207V692.072ZM713.223 696.728H723.831V698.328H713.223V696.728ZM735.412 684.04H737.284V684.728C737.284 687.576 735.044 689.992 731.156 690.568L730.324 688.856C733.732 688.408 735.412 686.472 735.412 684.728V684.04ZM735.812 684.04H737.668V684.728C737.668 686.456 739.364 688.408 742.756 688.856L741.94 690.568C738.052 689.992 735.812 687.576 735.812 684.728V684.04ZM735.428 693H737.54V698.424H735.428V693ZM729.844 691.656H743.236V693.384H729.844V691.656ZM749.616 692.28H751.584V693.736H753.056V692.28H755.024V698.264H749.616V692.28ZM751.584 695.272V696.664H753.056V695.272H751.584ZM757.312 692.168H758.928V693.272C758.928 695.448 758.048 697.56 755.856 698.408L754.816 696.824C756.592 696.088 757.312 694.664 757.312 693.272V692.168ZM757.808 692.168H759.424V693.272C759.424 694.808 760.128 696.216 761.936 696.824L760.88 698.408C758.64 697.608 757.808 695.608 757.808 693.272V692.168ZM755.472 686.776H759.184V688.504H755.472V686.776ZM752.08 684.168C754.304 684.168 755.984 685.608 755.984 687.656C755.984 689.704 754.304 691.16 752.08 691.16C749.84 691.16 748.16 689.704 748.16 687.656C748.16 685.608 749.84 684.168 752.08 684.168ZM752.08 685.912C750.992 685.912 750.192 686.568 750.192 687.656C750.192 688.744 750.992 689.416 752.08 689.416C753.168 689.416 753.952 688.744 753.952 687.656C753.952 686.568 753.168 685.912 752.08 685.912ZM758.256 683.608H760.384V691.448H758.256V683.608ZM764.271 692.488H766.367V693.736H772.303V692.488H774.415V698.264H764.271V692.488ZM766.367 695.32V696.6H772.303V695.32H766.367ZM762.703 690.072H776.095V691.752H762.703V690.072ZM768.319 683.768H770.142V684.216C770.142 686.792 767.935 688.92 764.111 689.416L763.359 687.768C766.703 687.368 768.319 685.72 768.319 684.216V683.768ZM768.671 683.768H770.495V684.216C770.495 685.704 772.111 687.368 775.439 687.768L774.687 689.416C770.863 688.92 768.671 686.776 768.671 684.216V683.768ZM787.677 683.608H789.805V698.424H787.677V683.608ZM778.205 685.016H780.317V694.216H778.205V685.016ZM778.205 692.968H779.517C781.677 692.968 784.077 692.808 786.525 692.328L786.765 694.088C784.221 694.616 781.773 694.776 779.517 694.776H778.205V692.968ZM801.612 683.592H803.756V698.456H801.612V683.592ZM803.276 689.08H805.9V690.824H803.276V689.08ZM792.716 693.128H793.964C796.46 693.128 798.428 693.048 800.604 692.664L800.812 694.424C798.572 694.824 796.54 694.888 793.964 694.888H792.716V693.128ZM792.716 684.968H799.628V686.68H794.828V693.976H792.716V684.968Z" fill="#201F1F"/>
<path d="M673.999 327.209H829.604C841.512 327.209 851.166 336.127 851.166 347.128V366.647H695.345L673.999 327.209Z" fill="#D8504F"/>
<path d="M695.684 366.782L674.274 327.209H610.36C598.363 327.209 588.637 336.197 588.637 347.285V501.332H851.971V366.782H695.684Z" fill="white"/>
<path d="M688.154 532.818V530.353H752.454V532.818C752.454 542.347 760.851 550.072 771.209 550.072C781.566 550.072 789.963 557.797 789.963 567.326V569.791H650.646V567.326C650.646 557.797 659.042 550.072 669.4 550.072C679.757 550.072 688.154 542.347 688.154 532.818Z" fill="#F4DCD5"/>
<path d="M851.971 500.588H588.637V510.51C588.637 521.469 598.223 530.353 610.046 530.353H830.562C842.386 530.353 851.971 521.469 851.971 510.51V500.588Z" fill="#69D8A6"/>
<path d="M643.486 446.412C643.486 445.775 643.673 445.138 644.048 444.501L663.059 410.246C663.914 408.581 665.385 407.747 667.471 407.747C668.54 407.747 669.677 408.106 670.88 408.821C672.083 409.538 672.685 410.415 672.685 411.453C672.685 411.799 672.551 412.219 672.284 412.712L656.882 441.175H666.268V433.02C666.268 431.984 666.775 431.195 667.792 430.65C668.807 430.107 670.038 429.835 671.482 429.835C672.925 429.835 674.155 430.107 675.172 430.65C676.187 431.195 676.696 431.984 676.696 433.02V441.175H680.466C681.481 441.175 682.283 441.595 682.872 442.433C683.46 443.271 683.755 444.272 683.755 445.435C683.755 446.506 683.42 447.472 682.752 448.334C682.083 449.195 681.321 449.625 680.466 449.625H676.696V458.756C676.696 459.737 676.187 460.511 675.172 461.078C674.155 461.645 672.925 461.929 671.482 461.929C670.09 461.929 668.875 461.646 667.832 461.078C666.789 460.51 666.268 459.737 666.268 458.756V449.625H647.016C645.999 449.625 645.157 449.334 644.489 448.752C643.82 448.17 643.486 447.39 643.486 446.412Z" fill="#1C1F9D"/>
<path fill-rule="evenodd" clip-rule="evenodd" d="M696.028 424.72V445.4C696.028 451.282 697.725 455.58 701.121 458.297C704.517 461.016 709.075 462.374 714.798 462.374C720.52 462.374 725.092 461.016 728.515 458.297C731.937 455.581 733.649 451.282 733.649 445.4V424.72C733.649 418.84 731.936 414.541 728.515 411.823C725.092 409.106 720.52 407.747 714.798 407.747C709.075 407.747 704.517 409.106 701.121 411.823C697.725 414.541 696.028 418.841 696.028 424.72ZM714.798 453.924C709.236 453.924 706.456 451.083 706.456 445.4V424.72C706.456 419.039 709.236 416.197 714.798 416.197C720.413 416.197 723.221 419.039 723.221 424.72V445.4C723.221 451.083 720.413 453.924 714.798 453.924Z" fill="#1C1F9D"/>
<path d="M745.681 446.412C745.681 445.775 745.867 445.138 746.242 444.501L765.254 410.246C766.108 408.581 767.58 407.747 769.666 407.747C770.734 407.747 771.872 408.106 773.075 408.821C774.278 409.538 774.88 410.415 774.88 411.453C774.88 411.799 774.745 412.219 774.479 412.712L759.077 441.175H768.462V433.02C768.462 431.984 768.97 431.195 769.987 430.65C771.002 430.107 772.232 429.835 773.676 429.835C775.12 429.835 776.349 430.107 777.366 430.65C778.381 431.195 778.891 431.984 778.891 433.02V441.175H782.66C783.675 441.175 784.477 441.595 785.067 442.433C785.655 443.271 785.949 444.272 785.949 445.435C785.949 446.506 785.615 447.472 784.946 448.334C784.277 449.195 783.515 449.625 782.66 449.625H778.891V458.756C778.891 459.737 778.381 460.511 777.366 461.078C776.349 461.645 775.12 461.929 773.676 461.929C772.285 461.929 771.069 461.646 770.026 461.078C768.984 460.511 768.462 459.737 768.462 458.756V449.625H749.211C748.194 449.625 747.351 449.334 746.683 448.752C746.014 448.17 745.681 447.39 745.681 446.412Z" fill="#1C1F9D"/>
<path fill-rule="evenodd" clip-rule="evenodd" d="M673.911 322H829.847C844.711 322 856.803 333.174 856.803 346.908V510.762C856.803 524.385 844.808 535.469 830.064 535.469H757.604C758.847 541.1 764.248 545.352 770.705 545.352C783.974 545.352 794.769 555.327 794.769 567.588V570.059C794.769 572.787 792.375 575 789.422 575H650.381C647.428 575 645.033 572.787 645.033 570.059V567.588C645.033 555.327 655.829 545.352 669.098 545.352C675.554 545.352 680.956 541.1 682.198 535.469H609.739C594.995 535.469 583 524.385 583 510.762V346.996C583 333.213 595.135 322 610.051 322H673.911ZM846.108 371.414H593.695V495.938H846.108V371.414ZM829.847 331.883C838.813 331.883 846.108 338.623 846.108 346.908V361.531H698.607L682.564 331.883H829.847ZM670.606 331.883H610.051C601.033 331.883 593.695 338.663 593.695 346.996V361.531H686.649L681.302 351.648H631.129C628.183 351.648 625.782 349.43 625.782 346.707C625.782 343.984 628.183 341.766 631.129 341.766H675.954L670.606 331.883ZM750.712 545.352H731.399C728.452 545.352 726.051 547.57 726.051 550.293C726.051 553.016 728.452 555.234 731.399 555.234H770.705C777.161 555.234 782.563 559.486 783.806 565.117H655.997C657.24 559.486 662.642 555.234 669.098 555.234C681.464 555.234 691.681 546.572 693.015 535.469H746.788C747.224 539.097 748.613 542.461 750.712 545.352ZM830.064 525.586C838.911 525.586 846.108 518.936 846.108 510.762V505.82H593.695V510.762C593.695 518.936 600.892 525.586 609.739 525.586H687.815H751.988H830.064Z" fill="#1C1F9D"/>
<path d="M830.065 351.648C833.016 351.648 835.412 349.435 835.412 346.707C835.412 343.979 833.016 341.766 830.065 341.766C827.112 341.766 824.717 343.979 824.717 346.707C824.717 349.435 827.112 351.648 830.065 351.648Z" fill="#1C1F9D"/>
<path d="M808.674 351.648C811.626 351.648 814.021 349.435 814.021 346.707C814.021 343.979 811.626 341.766 808.674 341.766C805.721 341.766 803.326 343.979 803.326 346.707C803.326 349.435 805.721 351.648 808.674 351.648Z" fill="#1C1F9D"/>
<path d="M787.283 351.648C790.235 351.648 792.63 349.435 792.63 346.707C792.63 343.979 790.235 341.766 787.283 341.766C784.33 341.766 781.935 343.979 781.935 346.707C781.935 349.435 784.33 351.648 787.283 351.648Z" fill="#1C1F9D"/>
<path d="M710.008 555.234C712.955 555.234 715.356 553.016 715.356 550.293C715.356 547.57 712.955 545.352 710.008 545.352C707.062 545.352 704.66 547.57 704.66 550.293C704.66 553.016 707.062 555.234 710.008 555.234Z" fill="#1C1F9D"/>
<path d="M609.739 351.648C612.685 351.648 615.086 349.43 615.086 346.707C615.086 343.984 612.685 341.766 609.739 341.766C606.792 341.766 604.391 343.984 604.391 346.707C604.391 349.43 606.792 351.648 609.739 351.648Z" fill="#1C1F9D"/>
<ellipse cx="1376" cy="476.5" rx="451" ry="617.5" fill="#FDEFEE"/>
<ellipse cx="87" cy="512.5" rx="451" ry="617.5" fill="#FDEFEE"/>
</g>
<defs>
<clipPath id="clip0_345_1179">
<rect width="1440" height="1024" fill="white"/>
</clipPath>
</defs>
</svg>
