<svg width="1440" height="1024" viewBox="0 0 1440 1024" fill="none" xmlns="http://www.w3.org/2000/svg">
<g clip-path="url(#clip0_345_1179)">
<rect width="1440" height="1024" fill="white"/>
<g clip-path="url(#clip1_345_1179)">
<path d="M394.864 691.182C394.864 687.335 392.432 685.205 389.307 685.205C386.17 685.205 383.756 687.335 383.756 691.182C383.756 695.011 386.17 697.159 389.307 697.159C392.432 697.159 394.864 695.028 394.864 691.182ZM391.989 691.182C391.989 693.46 390.989 694.693 389.307 694.693C387.631 694.693 386.625 693.46 386.625 691.182C386.625 688.903 387.631 687.67 389.307 687.67C390.989 687.67 391.989 688.903 391.989 691.182ZM400.58 697.165C403.324 697.165 404.989 695.352 404.989 692.665C404.989 689.972 403.324 688.159 400.58 688.159C397.835 688.159 396.17 689.972 396.17 692.665C396.17 695.352 397.835 697.165 400.58 697.165ZM400.597 695.068C399.568 695.068 399 694.091 399 692.648C399 691.199 399.568 690.216 400.597 690.216C401.591 690.216 402.159 691.199 402.159 692.648C402.159 694.091 401.591 695.068 400.597 695.068ZM406.412 700.273H409.19V695.585H409.247C409.599 696.392 410.384 697.125 411.702 697.125C413.634 697.125 415.19 695.614 415.19 692.642C415.19 689.562 413.543 688.159 411.719 688.159C410.338 688.159 409.582 688.966 409.247 689.767H409.162V688.273H406.412V700.273ZM409.134 692.636C409.134 691.21 409.724 690.33 410.741 690.33C411.77 690.33 412.338 691.233 412.338 692.636C412.338 694.045 411.77 694.96 410.741 694.96C409.724 694.96 409.134 694.051 409.134 692.636ZM424.266 690.938C424.118 689.21 422.703 688.159 420.339 688.159C417.976 688.159 416.47 689.188 416.482 690.938C416.47 692.278 417.328 693.142 419.072 693.466L420.595 693.756C421.317 693.898 421.646 694.125 421.658 694.511C421.646 694.949 421.158 695.239 420.447 695.239C419.658 695.239 419.124 694.898 419.004 694.261L416.26 694.33C416.459 696.057 417.942 697.165 420.436 697.165C422.771 697.165 424.47 696 424.482 694.205C424.47 692.932 423.629 692.176 421.891 691.841L420.209 691.523C419.47 691.375 419.232 691.114 419.237 690.778C419.232 690.335 419.749 690.062 420.391 690.062C421.124 690.062 421.635 690.455 421.714 691.006L424.266 690.938ZM429.116 685.364H426.259L426.52 693.438H428.855L429.116 685.364ZM427.69 697.165C428.469 697.165 429.156 696.506 429.168 695.688C429.156 694.881 428.469 694.227 427.69 694.227C426.872 694.227 426.202 694.881 426.213 695.688C426.202 696.506 426.872 697.165 427.69 697.165ZM434.344 687.648H437.878V697H440.651V687.648H444.179V685.364H434.344V687.648ZM448.331 692.023C448.337 691.028 448.928 690.438 449.808 690.438C450.7 690.438 451.217 691.011 451.212 691.983V697H453.99V691.438C453.996 689.46 452.791 688.159 450.956 688.159C449.649 688.159 448.729 688.801 448.337 689.875H448.24V685.364H445.553V697H448.331V692.023ZM459.804 697.165C462.094 697.165 463.599 696.057 463.918 694.341L461.366 694.267C461.151 694.847 460.582 695.159 459.855 695.159C458.787 695.159 458.128 694.449 458.128 693.381V693.307H463.946V692.614C463.946 689.739 462.196 688.159 459.719 688.159C457.082 688.159 455.389 689.966 455.389 692.67C455.389 695.466 457.06 697.165 459.804 697.165ZM458.128 691.693C458.168 690.824 458.855 690.165 459.776 690.165C460.69 690.165 461.349 690.801 461.361 691.693H458.128ZM468.803 700.273H471.581V695.585H471.638C471.99 696.392 472.774 697.125 474.092 697.125C476.024 697.125 477.581 695.614 477.581 692.642C477.581 689.562 475.933 688.159 474.109 688.159C472.729 688.159 471.973 688.966 471.638 689.767H471.553V688.273H468.803V700.273ZM471.524 692.636C471.524 691.21 472.115 690.33 473.132 690.33C474.161 690.33 474.729 691.233 474.729 692.636C474.729 694.045 474.161 694.96 473.132 694.96C472.115 694.96 471.524 694.051 471.524 692.636ZM481.497 697.148C482.713 697.148 483.554 696.676 484.031 695.784H484.099V697H486.713V691.068C486.713 689.222 485.071 688.159 482.849 688.159C480.503 688.159 479.173 689.341 478.952 690.932L481.514 691.023C481.634 690.466 482.094 690.125 482.827 690.125C483.509 690.125 483.94 690.455 483.94 691.04V691.068C483.94 691.602 483.361 691.716 481.872 691.847C480.105 691.994 478.628 692.648 478.628 694.58C478.628 696.307 479.827 697.148 481.497 697.148ZM482.355 695.33C481.713 695.33 481.259 695.023 481.259 694.443C481.259 693.881 481.702 693.54 482.491 693.42C483.009 693.347 483.645 693.233 483.957 693.068V693.898C483.957 694.75 483.241 695.33 482.355 695.33ZM492.48 700.455C495.111 700.455 496.906 699.256 496.906 697.034V688.273H494.139V689.767H494.06C493.724 688.966 492.963 688.159 491.588 688.159C489.764 688.159 488.111 689.562 488.111 692.625C488.111 695.591 489.685 696.881 491.599 696.881C492.884 696.881 493.741 696.284 494.071 695.477H494.168V697.011C494.168 698.125 493.486 698.528 492.554 698.528C491.662 698.528 491.128 698.188 490.98 697.648L488.349 697.795C488.554 699.324 489.991 700.455 492.48 700.455ZM492.565 694.858C491.537 694.858 490.963 694.023 490.963 692.625C490.963 691.233 491.531 690.33 492.565 690.33C493.582 690.33 494.173 691.21 494.173 692.625C494.173 694.028 493.577 694.858 492.565 694.858ZM502.757 697.165C505.047 697.165 506.553 696.057 506.871 694.341L504.32 694.267C504.104 694.847 503.536 695.159 502.808 695.159C501.74 695.159 501.081 694.449 501.081 693.381V693.307H506.899V692.614C506.899 689.739 505.149 688.159 502.672 688.159C500.036 688.159 498.342 689.966 498.342 692.67C498.342 695.466 500.013 697.165 502.757 697.165ZM501.081 691.693C501.121 690.824 501.808 690.165 502.729 690.165C503.643 690.165 504.303 690.801 504.314 691.693H501.081ZM513.455 700.273C515.455 700.273 516.449 699.261 516.932 697.835L520.222 688.278L517.295 688.273L515.665 694.5H515.574L513.966 688.273H511.057L514.159 697.318L514.051 697.58C513.784 698.233 513.182 698.244 512.364 697.977L511.75 699.994C512.17 700.165 512.79 700.273 513.455 700.273ZM525.08 697.165C527.824 697.165 529.489 695.352 529.489 692.665C529.489 689.972 527.824 688.159 525.08 688.159C522.335 688.159 520.67 689.972 520.67 692.665C520.67 695.352 522.335 697.165 525.08 697.165ZM525.097 695.068C524.068 695.068 523.5 694.091 523.5 692.648C523.5 691.199 524.068 690.216 525.097 690.216C526.091 690.216 526.659 691.199 526.659 692.648C526.659 694.091 526.091 695.068 525.097 695.068ZM536.543 693.233C536.543 694.25 535.895 694.818 535.071 694.818C534.219 694.818 533.696 694.239 533.69 693.29V688.273H530.912V693.835C530.918 695.807 532.116 697.114 533.912 697.114C535.219 697.114 536.19 696.443 536.577 695.375H536.668V697H539.315V688.273H536.543V693.233ZM546.982 697.148C548.197 697.148 549.038 696.676 549.516 695.784H549.584V697H552.197V691.068C552.197 689.222 550.555 688.159 548.334 688.159C545.987 688.159 544.658 689.341 544.436 690.932L546.999 691.023C547.118 690.466 547.578 690.125 548.311 690.125C548.993 690.125 549.425 690.455 549.425 691.04V691.068C549.425 691.602 548.845 691.716 547.357 691.847C545.589 691.994 544.112 692.648 544.112 694.58C544.112 696.307 545.311 697.148 546.982 697.148ZM547.839 695.33C547.197 695.33 546.743 695.023 546.743 694.443C546.743 693.881 547.186 693.54 547.976 693.42C548.493 693.347 549.129 693.233 549.442 693.068V693.898C549.442 694.75 548.726 695.33 547.839 695.33ZM553.896 697H556.675V692.261C556.675 691.222 557.413 690.523 558.408 690.523C558.737 690.523 559.232 690.58 559.499 690.67V688.256C559.266 688.193 558.976 688.153 558.72 688.153C557.766 688.153 557.004 688.71 556.686 689.864H556.595V688.273H553.896V697ZM564.257 697.165C566.547 697.165 568.053 696.057 568.371 694.341L565.82 694.267C565.604 694.847 565.036 695.159 564.308 695.159C563.24 695.159 562.581 694.449 562.581 693.381V693.307H568.399V692.614C568.399 689.739 566.649 688.159 564.172 688.159C561.536 688.159 559.842 689.966 559.842 692.67C559.842 695.466 561.513 697.165 564.257 697.165ZM562.581 691.693C562.621 690.824 563.308 690.165 564.229 690.165C565.143 690.165 565.803 690.801 565.814 691.693H562.581ZM576.034 685.364H573.256V697H576.034V685.364ZM581.876 697.165C584.621 697.165 586.286 695.352 586.286 692.665C586.286 689.972 584.621 688.159 581.876 688.159C579.132 688.159 577.467 689.972 577.467 692.665C577.467 695.352 579.132 697.165 581.876 697.165ZM581.893 695.068C580.865 695.068 580.297 694.091 580.297 692.648C580.297 691.199 580.865 690.216 581.893 690.216C582.888 690.216 583.456 691.199 583.456 692.648C583.456 694.091 582.888 695.068 581.893 695.068ZM591.783 697.165C594.527 697.165 596.192 695.352 596.192 692.665C596.192 689.972 594.527 688.159 591.783 688.159C589.038 688.159 587.374 689.972 587.374 692.665C587.374 695.352 589.038 697.165 591.783 697.165ZM591.8 695.068C590.771 695.068 590.203 694.091 590.203 692.648C590.203 691.199 590.771 690.216 591.8 690.216C592.794 690.216 593.362 691.199 593.362 692.648C593.362 694.091 592.794 695.068 591.8 695.068ZM597.615 697H600.393V694.381L600.956 693.699L603.036 697H606.246L603.024 692.074L606.121 688.273H602.973L600.518 691.398H600.393V685.364H597.615V697ZM607.115 697H609.893V688.273H607.115V697ZM608.507 687.256C609.297 687.256 609.933 686.659 609.933 685.926C609.933 685.193 609.297 684.602 608.507 684.602C607.723 684.602 607.081 685.193 607.081 685.926C607.081 686.659 607.723 687.256 608.507 687.256ZM614.44 692.023C614.446 691.028 615.026 690.438 615.906 690.438C616.787 690.438 617.31 691.017 617.304 691.983V697H620.082V691.438C620.088 689.472 618.889 688.159 617.054 688.159C615.764 688.159 614.787 688.812 614.401 689.875H614.304V688.273H611.662V697H614.44V692.023ZM625.871 700.455C628.501 700.455 630.297 699.256 630.297 697.034V688.273H627.53V689.767H627.45C627.115 688.966 626.354 688.159 624.979 688.159C623.155 688.159 621.501 689.562 621.501 692.625C621.501 695.591 623.075 696.881 624.99 696.881C626.274 696.881 627.132 696.284 627.462 695.477H627.558V697.011C627.558 698.125 626.876 698.528 625.945 698.528C625.053 698.528 624.518 698.188 624.371 697.648L621.74 697.795C621.945 699.324 623.382 700.455 625.871 700.455ZM625.956 694.858C624.928 694.858 624.354 694.023 624.354 692.625C624.354 691.233 624.922 690.33 625.956 690.33C626.973 690.33 627.564 691.21 627.564 692.625C627.564 694.028 626.967 694.858 625.956 694.858ZM640.466 688.273H638.801V687.784C638.801 687.284 639.006 686.977 639.653 686.977C639.915 686.977 640.233 687.034 640.438 687.097L640.881 685.062C640.551 684.972 639.795 684.818 639.028 684.818C637.25 684.818 636.028 685.807 636.028 687.83V688.273H634.852V690.318H636.028V697H638.801V690.318H640.466V688.273ZM645.58 697.165C648.324 697.165 649.989 695.352 649.989 692.665C649.989 689.972 648.324 688.159 645.58 688.159C642.835 688.159 641.17 689.972 641.17 692.665C641.17 695.352 642.835 697.165 645.58 697.165ZM645.597 695.068C644.568 695.068 644 694.091 644 692.648C644 691.199 644.568 690.216 645.597 690.216C646.591 690.216 647.159 691.199 647.159 692.648C647.159 694.091 646.591 695.068 645.597 695.068ZM651.412 697H654.19V692.261C654.19 691.222 654.929 690.523 655.923 690.523C656.253 690.523 656.747 690.58 657.014 690.67V688.256C656.781 688.193 656.491 688.153 656.236 688.153C655.281 688.153 654.52 688.71 654.202 689.864H654.111V688.273H651.412V697ZM664.771 697.125C666.089 697.125 666.874 696.392 667.226 695.585H667.311V697H670.061V685.364H667.283V689.767H667.226C666.896 688.966 666.135 688.159 664.76 688.159C662.936 688.159 661.283 689.562 661.283 692.642C661.283 695.614 662.845 697.125 664.771 697.125ZM665.737 694.96C664.709 694.96 664.135 694.045 664.135 692.636C664.135 691.233 664.703 690.33 665.737 690.33C666.754 690.33 667.345 691.21 667.345 692.636C667.345 694.051 666.749 694.96 665.737 694.96ZM675.892 697.165C678.636 697.165 680.301 695.352 680.301 692.665C680.301 689.972 678.636 688.159 675.892 688.159C673.148 688.159 671.483 689.972 671.483 692.665C671.483 695.352 673.148 697.165 675.892 697.165ZM675.909 695.068C674.881 695.068 674.312 694.091 674.312 692.648C674.312 691.199 674.881 690.216 675.909 690.216C676.903 690.216 677.472 691.199 677.472 692.648C677.472 694.091 676.903 695.068 675.909 695.068ZM685.804 697.165C688.094 697.165 689.599 696.057 689.918 694.341L687.366 694.267C687.151 694.847 686.582 695.159 685.855 695.159C684.787 695.159 684.128 694.449 684.128 693.381V693.307H689.946V692.614C689.946 689.739 688.196 688.159 685.719 688.159C683.082 688.159 681.389 689.966 681.389 692.67C681.389 695.466 683.06 697.165 685.804 697.165ZM684.128 691.693C684.168 690.824 684.855 690.165 685.776 690.165C686.69 690.165 687.349 690.801 687.361 691.693H684.128ZM698.984 690.938C698.837 689.21 697.422 688.159 695.058 688.159C692.695 688.159 691.189 689.188 691.2 690.938C691.189 692.278 692.047 693.142 693.791 693.466L695.314 693.756C696.036 693.898 696.365 694.125 696.376 694.511C696.365 694.949 695.876 695.239 695.166 695.239C694.376 695.239 693.842 694.898 693.723 694.261L690.979 694.33C691.178 696.057 692.661 697.165 695.155 697.165C697.49 697.165 699.189 696 699.2 694.205C699.189 692.932 698.348 692.176 696.609 691.841L694.928 691.523C694.189 691.375 693.95 691.114 693.956 690.778C693.95 690.335 694.467 690.062 695.109 690.062C695.842 690.062 696.354 690.455 696.433 691.006L698.984 690.938ZM706.784 692.023C706.79 691.028 707.369 690.438 708.25 690.438C709.131 690.438 709.653 691.017 709.648 691.983V697H712.426V691.438C712.432 689.472 711.233 688.159 709.398 688.159C708.108 688.159 707.131 688.812 706.744 689.875H706.648V688.273H704.006V697H706.784V692.023ZM718.22 697.165C720.964 697.165 722.629 695.352 722.629 692.665C722.629 689.972 720.964 688.159 718.22 688.159C715.476 688.159 713.811 689.972 713.811 692.665C713.811 695.352 715.476 697.165 718.22 697.165ZM718.237 695.068C717.209 695.068 716.641 694.091 716.641 692.648C716.641 691.199 717.209 690.216 718.237 690.216C719.232 690.216 719.8 691.199 719.8 692.648C719.8 694.091 719.232 695.068 718.237 695.068ZM728.979 688.273H727.405V686.182H724.626V688.273H723.473V690.318H724.626V694.562C724.609 696.33 725.757 697.216 727.717 697.125C728.388 697.091 728.871 696.955 729.138 696.875L728.717 694.869C728.598 694.898 728.32 694.955 728.109 694.955C727.661 694.955 727.405 694.773 727.405 694.256V690.318H728.979V688.273ZM737.913 697.165C740.203 697.165 741.709 696.057 742.027 694.341L739.476 694.267C739.26 694.847 738.692 695.159 737.964 695.159C736.896 695.159 736.237 694.449 736.237 693.381V693.307H742.055V692.614C742.055 689.739 740.305 688.159 737.828 688.159C735.192 688.159 733.499 689.966 733.499 692.67C733.499 695.466 735.169 697.165 737.913 697.165ZM736.237 691.693C736.277 690.824 736.964 690.165 737.885 690.165C738.8 690.165 739.459 690.801 739.47 691.693H736.237ZM745.713 688.273H742.895L745.304 692.636L742.77 697H745.588L747.151 694.102L748.753 697H751.531L749.003 692.636L751.44 688.273H748.639L747.151 691.148L745.713 688.273ZM752.709 697H755.487V688.273H752.709V697ZM754.101 687.256C754.891 687.256 755.527 686.659 755.527 685.926C755.527 685.193 754.891 684.602 754.101 684.602C753.317 684.602 752.675 685.193 752.675 685.926C752.675 686.659 753.317 687.256 754.101 687.256ZM764.875 690.938C764.727 689.21 763.312 688.159 760.949 688.159C758.585 688.159 757.08 689.188 757.091 690.938C757.08 692.278 757.938 693.142 759.682 693.466L761.205 693.756C761.926 693.898 762.256 694.125 762.267 694.511C762.256 694.949 761.767 695.239 761.057 695.239C760.267 695.239 759.733 694.898 759.614 694.261L756.869 694.33C757.068 696.057 758.551 697.165 761.045 697.165C763.381 697.165 765.08 696 765.091 694.205C765.08 692.932 764.239 692.176 762.5 691.841L760.818 691.523C760.08 691.375 759.841 691.114 759.847 690.778C759.841 690.335 760.358 690.062 761 690.062C761.733 690.062 762.244 690.455 762.324 691.006L764.875 690.938ZM771.385 688.273H769.811V686.182H767.033V688.273H765.879V690.318H767.033V694.562C767.016 696.33 768.163 697.216 770.124 697.125C770.794 697.091 771.277 696.955 771.544 696.875L771.124 694.869C771.004 694.898 770.726 694.955 770.516 694.955C770.067 694.955 769.811 694.773 769.811 694.256V690.318H771.385V688.273ZM774.365 697.165C775.143 697.165 775.831 696.506 775.842 695.688C775.831 694.881 775.143 694.227 774.365 694.227C773.547 694.227 772.876 694.881 772.888 695.688C772.876 696.506 773.547 697.165 774.365 697.165ZM783.193 685.364H780.381V697H783.193V685.364ZM789.885 688.273H788.311V686.182H785.533V688.273H784.379V690.318H785.533V694.562C785.516 696.33 786.663 697.216 788.624 697.125C789.294 697.091 789.777 696.955 790.044 696.875L789.624 694.869C789.504 694.898 789.226 694.955 789.016 694.955C788.567 694.955 788.311 694.773 788.311 694.256V690.318H789.885V688.273ZM794.74 697H797.518V691.835C797.518 690.972 798.024 690.42 798.751 690.42C799.473 690.42 799.95 690.926 799.95 691.733V697H802.621V691.79C802.621 690.955 803.081 690.42 803.848 690.42C804.553 690.42 805.053 690.892 805.053 691.761V697H807.831V691.125C807.831 689.278 806.695 688.159 805.047 688.159C803.757 688.159 802.74 688.835 802.416 689.875H802.325C802.092 688.83 801.155 688.159 799.945 688.159C798.751 688.159 797.842 688.812 797.479 689.875H797.382V688.273H794.74V697ZM809.553 697H812.331V688.273H809.553V697ZM810.945 687.256C811.734 687.256 812.371 686.659 812.371 685.926C812.371 685.193 811.734 684.602 810.945 684.602C810.161 684.602 809.518 685.193 809.518 685.926C809.518 686.659 810.161 687.256 810.945 687.256ZM818.168 700.455C820.798 700.455 822.594 699.256 822.594 697.034V688.273H819.827V689.767H819.747C819.412 688.966 818.651 688.159 817.276 688.159C815.452 688.159 813.798 689.562 813.798 692.625C813.798 695.591 815.372 696.881 817.287 696.881C818.571 696.881 819.429 696.284 819.759 695.477H819.855V697.011C819.855 698.125 819.173 698.528 818.241 698.528C817.349 698.528 816.815 698.188 816.668 697.648L814.037 697.795C814.241 699.324 815.679 700.455 818.168 700.455ZM818.253 694.858C817.224 694.858 816.651 694.023 816.651 692.625C816.651 691.233 817.219 690.33 818.253 690.33C819.27 690.33 819.861 691.21 819.861 692.625C819.861 694.028 819.264 694.858 818.253 694.858ZM827.143 692.023C827.149 691.028 827.74 690.438 828.621 690.438C829.513 690.438 830.03 691.011 830.024 691.983V697H832.803V691.438C832.808 689.46 831.604 688.159 829.768 688.159C828.462 688.159 827.541 688.801 827.149 689.875H827.053V685.364H824.365V697H827.143V692.023ZM839.463 688.273H837.889V686.182H835.111V688.273H833.957V690.318H835.111V694.562C835.094 696.33 836.241 697.216 838.202 697.125C838.872 697.091 839.355 696.955 839.622 696.875L839.202 694.869C839.082 694.898 838.804 694.955 838.594 694.955C838.145 694.955 837.889 694.773 837.889 694.256V690.318H839.463V688.273ZM847.097 692.023C847.102 691.028 847.693 690.438 848.574 690.438C849.466 690.438 849.983 691.011 849.977 691.983V697H852.756V691.438C852.761 689.46 851.557 688.159 849.722 688.159C848.415 688.159 847.494 688.801 847.102 689.875H847.006V685.364H844.318V697H847.097V692.023ZM856.95 697.148C858.166 697.148 859.007 696.676 859.484 695.784H859.553V697H862.166V691.068C862.166 689.222 860.524 688.159 858.303 688.159C855.956 688.159 854.626 689.341 854.405 690.932L856.967 691.023C857.087 690.466 857.547 690.125 858.28 690.125C858.962 690.125 859.393 690.455 859.393 691.04V691.068C859.393 691.602 858.814 691.716 857.325 691.847C855.558 691.994 854.081 692.648 854.081 694.58C854.081 696.307 855.28 697.148 856.95 697.148ZM857.808 695.33C857.166 695.33 856.712 695.023 856.712 694.443C856.712 693.881 857.155 693.54 857.945 693.42C858.462 693.347 859.098 693.233 859.411 693.068V693.898C859.411 694.75 858.695 695.33 857.808 695.33ZM872.018 688.273H869.092L867.479 694.284H867.388L865.78 688.273H862.854L865.842 697H869.024L872.018 688.273ZM876.882 697.165C879.172 697.165 880.678 696.057 880.996 694.341L878.445 694.267C878.229 694.847 877.661 695.159 876.933 695.159C875.865 695.159 875.206 694.449 875.206 693.381V693.307H881.024V692.614C881.024 689.739 879.274 688.159 876.797 688.159C874.161 688.159 872.467 689.966 872.467 692.67C872.467 695.466 874.138 697.165 876.882 697.165ZM875.206 691.693C875.246 690.824 875.933 690.165 876.854 690.165C877.768 690.165 878.428 690.801 878.439 691.693H875.206ZM885.881 697H888.631V695.585H888.716C889.068 696.392 889.852 697.125 891.17 697.125C893.102 697.125 894.659 695.614 894.659 692.642C894.659 689.562 893.011 688.159 891.188 688.159C889.807 688.159 889.051 688.966 888.716 689.767H888.659V685.364H885.881V697ZM888.602 692.636C888.602 691.21 889.193 690.33 890.21 690.33C891.239 690.33 891.807 691.233 891.807 692.636C891.807 694.045 891.239 694.96 890.21 694.96C889.193 694.96 888.602 694.051 888.602 692.636ZM900.195 697.165C902.484 697.165 903.99 696.057 904.308 694.341L901.757 694.267C901.541 694.847 900.973 695.159 900.246 695.159C899.178 695.159 898.518 694.449 898.518 693.381V693.307H904.337V692.614C904.337 689.739 902.587 688.159 900.109 688.159C897.473 688.159 895.78 689.966 895.78 692.67C895.78 695.466 897.45 697.165 900.195 697.165ZM898.518 691.693C898.558 690.824 899.246 690.165 900.166 690.165C901.081 690.165 901.74 690.801 901.751 691.693H898.518ZM909.835 697.165C912.125 697.165 913.631 696.057 913.949 694.341L911.398 694.267C911.182 694.847 910.614 695.159 909.886 695.159C908.818 695.159 908.159 694.449 908.159 693.381V693.307H913.977V692.614C913.977 689.739 912.227 688.159 909.75 688.159C907.114 688.159 905.42 689.966 905.42 692.67C905.42 695.466 907.091 697.165 909.835 697.165ZM908.159 691.693C908.199 690.824 908.886 690.165 909.807 690.165C910.722 690.165 911.381 690.801 911.392 691.693H908.159ZM918.175 692.023C918.18 691.028 918.76 690.438 919.641 690.438C920.521 690.438 921.044 691.017 921.038 691.983V697H923.817V691.438C923.822 689.472 922.624 688.159 920.788 688.159C919.499 688.159 918.521 688.812 918.135 689.875H918.038V688.273H915.396V697H918.175V692.023ZM928.974 697H931.753V691.835C931.753 690.972 932.259 690.42 932.986 690.42C933.707 690.42 934.185 690.926 934.185 691.733V697H936.855V691.79C936.855 690.955 937.315 690.42 938.082 690.42C938.787 690.42 939.287 690.892 939.287 691.761V697H942.065V691.125C942.065 689.278 940.929 688.159 939.281 688.159C937.991 688.159 936.974 688.835 936.651 689.875H936.56C936.327 688.83 935.389 688.159 934.179 688.159C932.986 688.159 932.077 688.812 931.713 689.875H931.616V688.273H928.974V697ZM947.861 697.165C950.605 697.165 952.27 695.352 952.27 692.665C952.27 689.972 950.605 688.159 947.861 688.159C945.116 688.159 943.452 689.972 943.452 692.665C943.452 695.352 945.116 697.165 947.861 697.165ZM947.878 695.068C946.849 695.068 946.281 694.091 946.281 692.648C946.281 691.199 946.849 690.216 947.878 690.216C948.872 690.216 949.44 691.199 949.44 692.648C949.44 694.091 948.872 695.068 947.878 695.068ZM961.878 688.273H958.952L957.338 694.284H957.247L955.639 688.273H952.713L955.702 697H958.884L961.878 688.273ZM966.741 697.165C969.031 697.165 970.537 696.057 970.855 694.341L968.304 694.267C968.088 694.847 967.52 695.159 966.793 695.159C965.724 695.159 965.065 694.449 965.065 693.381V693.307H970.884V692.614C970.884 689.739 969.134 688.159 966.656 688.159C964.02 688.159 962.327 689.966 962.327 692.67C962.327 695.466 963.997 697.165 966.741 697.165ZM965.065 691.693C965.105 690.824 965.793 690.165 966.713 690.165C967.628 690.165 968.287 690.801 968.298 691.693H965.065ZM975.49 697.125C976.808 697.125 977.592 696.392 977.945 695.585H978.03V697H980.78V685.364H978.001V689.767H977.945C977.615 688.966 976.854 688.159 975.479 688.159C973.655 688.159 972.001 689.562 972.001 692.642C972.001 695.614 973.564 697.125 975.49 697.125ZM976.456 694.96C975.428 694.96 974.854 694.045 974.854 692.636C974.854 691.233 975.422 690.33 976.456 690.33C977.473 690.33 978.064 691.21 978.064 692.636C978.064 694.051 977.467 694.96 976.456 694.96ZM990.048 697.165C992.793 697.165 994.457 695.352 994.457 692.665C994.457 689.972 992.793 688.159 990.048 688.159C987.304 688.159 985.639 689.972 985.639 692.665C985.639 695.352 987.304 697.165 990.048 697.165ZM990.065 695.068C989.037 695.068 988.469 694.091 988.469 692.648C988.469 691.199 989.037 690.216 990.065 690.216C991.06 690.216 991.628 691.199 991.628 692.648C991.628 694.091 991.06 695.068 990.065 695.068ZM995.881 697H998.659V692.261C998.659 691.222 999.398 690.523 1000.39 690.523C1000.72 690.523 1001.22 690.58 1001.48 690.67V688.256C1001.25 688.193 1000.96 688.153 1000.7 688.153C999.75 688.153 998.989 688.71 998.67 689.864H998.58V688.273H995.881V697ZM1009.24 697.125C1010.56 697.125 1011.34 696.392 1011.69 695.585H1011.78V697H1014.53V685.364H1011.75V689.767H1011.69C1011.37 688.966 1010.6 688.159 1009.23 688.159C1007.4 688.159 1005.75 689.562 1005.75 692.642C1005.75 695.614 1007.31 697.125 1009.24 697.125ZM1010.21 694.96C1009.18 694.96 1008.6 694.045 1008.6 692.636C1008.6 691.233 1009.17 690.33 1010.21 690.33C1011.22 690.33 1011.81 691.21 1011.81 692.636C1011.81 694.051 1011.22 694.96 1010.21 694.96ZM1020.37 697.165C1022.66 697.165 1024.16 696.057 1024.48 694.341L1021.93 694.267C1021.71 694.847 1021.14 695.159 1020.42 695.159C1019.35 695.159 1018.69 694.449 1018.69 693.381V693.307H1024.51V692.614C1024.51 689.739 1022.76 688.159 1020.28 688.159C1017.64 688.159 1015.95 689.966 1015.95 692.67C1015.95 695.466 1017.62 697.165 1020.37 697.165ZM1018.69 691.693C1018.73 690.824 1019.42 690.165 1020.34 690.165C1021.25 690.165 1021.91 690.801 1021.92 691.693H1018.69ZM1028.71 685.364H1025.93V697H1028.71V685.364ZM1034.55 697.165C1036.84 697.165 1038.35 696.057 1038.67 694.341L1036.12 694.267C1035.9 694.847 1035.33 695.159 1034.61 695.159C1033.54 695.159 1032.88 694.449 1032.88 693.381V693.307H1038.7V692.614C1038.7 689.739 1036.95 688.159 1034.47 688.159C1031.83 688.159 1030.14 689.966 1030.14 692.67C1030.14 695.466 1031.81 697.165 1034.55 697.165ZM1032.88 691.693C1032.92 690.824 1033.61 690.165 1034.53 690.165C1035.44 690.165 1036.1 690.801 1036.11 691.693H1032.88ZM1045.04 688.273H1043.47V686.182H1040.69V688.273H1039.54V690.318H1040.69V694.562C1040.67 696.33 1041.82 697.216 1043.78 697.125C1044.45 697.091 1044.93 696.955 1045.2 696.875L1044.78 694.869C1044.66 694.898 1044.38 694.955 1044.17 694.955C1043.72 694.955 1043.47 694.773 1043.47 694.256V690.318H1045.04V688.273ZM1050.44 697.165C1052.73 697.165 1054.24 696.057 1054.56 694.341L1052.01 694.267C1051.79 694.847 1051.22 695.159 1050.5 695.159C1049.43 695.159 1048.77 694.449 1048.77 693.381V693.307H1054.59V692.614C1054.59 689.739 1052.84 688.159 1050.36 688.159C1047.72 688.159 1046.03 689.966 1046.03 692.67C1046.03 695.466 1047.7 697.165 1050.44 697.165ZM1048.77 691.693C1048.81 690.824 1049.5 690.165 1050.42 690.165C1051.33 690.165 1051.99 690.801 1052 691.693H1048.77ZM1059.19 697.125C1060.51 697.125 1061.3 696.392 1061.65 695.585H1061.73V697H1064.48V685.364H1061.7V689.767H1061.65C1061.32 688.966 1060.56 688.159 1059.18 688.159C1057.36 688.159 1055.7 689.562 1055.7 692.642C1055.7 695.614 1057.27 697.125 1059.19 697.125ZM1060.16 694.96C1059.13 694.96 1058.56 694.045 1058.56 692.636C1058.56 691.233 1059.12 690.33 1060.16 690.33C1061.18 690.33 1061.77 691.21 1061.77 692.636C1061.77 694.051 1061.17 694.96 1060.16 694.96ZM1067.8 697.165C1068.58 697.165 1069.27 696.506 1069.28 695.688C1069.27 694.881 1068.58 694.227 1067.8 694.227C1066.98 694.227 1066.31 694.881 1066.33 695.688C1066.31 696.506 1066.98 697.165 1067.8 697.165Z" fill="#201F1F"/>
<path d="M563.312 653H570.695V643.514H575.706C582.701 643.514 587.071 639.368 587.071 633.029C587.071 626.75 582.79 622.455 575.93 622.455H563.312V653ZM570.695 637.697V628.406H574.334C577.645 628.406 579.42 630.195 579.42 633.029C579.42 635.848 577.645 637.697 574.334 637.697H570.695ZM596.348 653.388C599.54 653.388 601.747 652.15 603 649.808H603.179V653H610.04V637.429C610.04 632.582 605.729 629.793 599.898 629.793C593.738 629.793 590.248 632.895 589.666 637.071L596.393 637.31C596.706 635.848 597.914 634.953 599.838 634.953C601.628 634.953 602.761 635.818 602.761 637.354V637.429C602.761 638.831 601.24 639.129 597.332 639.472C592.694 639.86 588.816 641.575 588.816 646.646C588.816 651.18 591.963 653.388 596.348 653.388ZM598.6 648.615C596.915 648.615 595.722 647.81 595.722 646.288C595.722 644.812 596.885 643.917 598.958 643.604C600.315 643.41 601.986 643.112 602.806 642.679V644.857C602.806 647.094 600.927 648.615 598.6 648.615ZM625.178 662.068C632.084 662.068 636.797 658.921 636.797 653.089V630.091H629.533V634.013H629.325C628.445 631.911 626.446 629.793 622.837 629.793C618.049 629.793 613.709 633.477 613.709 641.516C613.709 649.301 617.84 652.687 622.866 652.687C626.237 652.687 628.489 651.121 629.354 649.003H629.608V653.03C629.608 655.953 627.818 657.012 625.372 657.012C623.031 657.012 621.629 656.117 621.241 654.7L614.335 655.088C614.872 659.1 618.646 662.068 625.178 662.068ZM625.402 647.377C622.702 647.377 621.196 645.185 621.196 641.516C621.196 637.862 622.688 635.49 625.402 635.49C628.072 635.49 629.623 637.802 629.623 641.516C629.623 645.2 628.057 647.377 625.402 647.377ZM652.155 653.433C658.166 653.433 662.118 650.524 662.954 646.02L656.257 645.826C655.69 647.347 654.199 648.168 652.29 648.168C649.486 648.168 647.756 646.303 647.756 643.499V643.305H663.028V641.486C663.028 633.939 658.434 629.793 651.932 629.793C645.011 629.793 640.567 634.536 640.567 641.635C640.567 648.973 644.952 653.433 652.155 653.433ZM647.756 639.07C647.86 636.788 649.665 635.058 652.081 635.058C654.482 635.058 656.212 636.728 656.242 639.07H647.756ZM683.07 639.935C683.085 637.325 684.606 635.773 686.918 635.773C689.23 635.773 690.602 637.295 690.587 639.83V653H697.88V638.398C697.895 633.238 694.748 629.793 689.931 629.793C686.545 629.793 683.98 631.508 682.966 634.297H682.712V630.091H675.777V653H683.07V639.935ZM713.09 653.433C720.294 653.433 724.664 648.675 724.664 641.62C724.664 634.55 720.294 629.793 713.09 629.793C705.886 629.793 701.516 634.55 701.516 641.62C701.516 648.675 705.886 653.433 713.09 653.433ZM713.134 647.929C710.435 647.929 708.943 645.364 708.943 641.575C708.943 637.772 710.435 635.192 713.134 635.192C715.744 635.192 717.236 637.772 717.236 641.575C717.236 645.364 715.744 647.929 713.134 647.929ZM741.331 630.091H737.199V624.602H729.906V630.091H726.878V635.46H729.906V646.602C729.861 651.24 732.874 653.567 738.02 653.328C739.78 653.239 741.047 652.881 741.748 652.672L740.645 647.407C740.331 647.482 739.601 647.631 739.049 647.631C737.871 647.631 737.199 647.153 737.199 645.796V635.46H741.331V630.091ZM767.096 630.091H762.726V628.808C762.726 627.496 763.263 626.69 764.963 626.69C765.649 626.69 766.485 626.839 767.021 627.004L768.185 621.664C767.32 621.425 765.336 621.023 763.323 621.023C758.654 621.023 755.448 623.618 755.448 628.928V630.091H752.36V635.46H755.448V653H762.726V635.46H767.096V630.091ZM780.519 653.433C787.723 653.433 792.093 648.675 792.093 641.62C792.093 634.55 787.723 629.793 780.519 629.793C773.316 629.793 768.945 634.55 768.945 641.62C768.945 648.675 773.316 653.433 780.519 653.433ZM780.564 647.929C777.865 647.929 776.373 645.364 776.373 641.575C776.373 637.772 777.865 635.192 780.564 635.192C783.174 635.192 784.666 637.772 784.666 641.575C784.666 645.364 783.174 647.929 780.564 647.929ZM810.61 643.112C810.61 645.781 808.91 647.273 806.747 647.273C804.51 647.273 803.138 645.751 803.123 643.261V630.091H795.829V644.692C795.844 649.868 798.991 653.298 803.704 653.298C807.135 653.298 809.685 651.538 810.699 648.734H810.938V653H817.888V630.091H810.61V643.112ZM829.824 639.935C829.839 637.325 831.36 635.773 833.672 635.773C835.984 635.773 837.356 637.295 837.341 639.83V653H844.634V638.398C844.649 633.238 841.502 629.793 836.685 629.793C833.299 629.793 830.734 631.508 829.719 634.297H829.466V630.091H822.531V653H829.824V639.935ZM857.517 653.328C860.977 653.328 863.035 651.404 863.96 649.286H864.184V653H871.403V622.455H864.109V634.013H863.96C863.095 631.911 861.096 629.793 857.487 629.793C852.699 629.793 848.359 633.477 848.359 641.56C848.359 649.361 852.461 653.328 857.517 653.328ZM860.052 647.646C857.353 647.646 855.846 645.244 855.846 641.545C855.846 637.862 857.338 635.49 860.052 635.49C862.722 635.49 864.273 637.802 864.273 641.545C864.273 645.259 862.707 647.646 860.052 647.646Z" fill="#201F1F"/>
<path d="M673.999 327.209H829.604C841.512 327.209 851.166 336.127 851.166 347.128V366.647H695.345L673.999 327.209Z" fill="#D8504F"/>
<path d="M695.684 366.782L674.274 327.209H610.36C598.363 327.209 588.637 336.197 588.637 347.285V501.332H851.971V366.782H695.684Z" fill="white"/>
<path d="M688.154 532.818V530.353H752.454V532.818C752.454 542.347 760.851 550.072 771.209 550.072V550.072C781.566 550.072 789.963 557.797 789.963 567.326V569.791H650.646V567.326C650.646 557.797 659.042 550.072 669.4 550.072V550.072C679.757 550.072 688.154 542.347 688.154 532.818Z" fill="#F4DCD5"/>
<path d="M851.971 500.588H588.637V510.51C588.637 521.469 598.223 530.353 610.046 530.353H830.562C842.386 530.353 851.971 521.469 851.971 510.51V500.588Z" fill="#69D8A6"/>
<path d="M643.486 446.412C643.486 445.775 643.673 445.138 644.048 444.501L663.059 410.246C663.914 408.581 665.385 407.747 667.471 407.747C668.54 407.747 669.677 408.106 670.88 408.821C672.083 409.538 672.685 410.415 672.685 411.453C672.685 411.799 672.551 412.219 672.284 412.712L656.882 441.175H666.268V433.02C666.268 431.984 666.775 431.195 667.792 430.65C668.807 430.107 670.038 429.835 671.482 429.835C672.925 429.835 674.155 430.107 675.172 430.65C676.187 431.195 676.696 431.984 676.696 433.02V441.175H680.466C681.481 441.175 682.283 441.595 682.872 442.433C683.46 443.271 683.755 444.272 683.755 445.435C683.755 446.506 683.42 447.472 682.752 448.334C682.083 449.195 681.321 449.625 680.466 449.625H676.696V458.756C676.696 459.737 676.187 460.511 675.172 461.078C674.155 461.645 672.925 461.929 671.482 461.929C670.09 461.929 668.875 461.646 667.832 461.078C666.789 460.51 666.268 459.737 666.268 458.756V449.625H647.016C645.999 449.625 645.157 449.334 644.489 448.752C643.82 448.17 643.486 447.39 643.486 446.412Z" fill="#1C1F9D"/>
<path fill-rule="evenodd" clip-rule="evenodd" d="M696.028 424.72V445.4C696.028 451.282 697.725 455.58 701.121 458.297C704.517 461.016 709.075 462.374 714.798 462.374C720.52 462.374 725.092 461.016 728.515 458.297C731.937 455.581 733.649 451.282 733.649 445.4V424.72C733.649 418.84 731.936 414.541 728.515 411.823C725.092 409.106 720.52 407.747 714.798 407.747C709.075 407.747 704.517 409.106 701.121 411.823C697.725 414.541 696.028 418.841 696.028 424.72ZM714.798 453.924C709.236 453.924 706.456 451.083 706.456 445.4V424.72C706.456 419.039 709.236 416.197 714.798 416.197C720.413 416.197 723.221 419.039 723.221 424.72V445.4C723.221 451.083 720.413 453.924 714.798 453.924Z" fill="#1C1F9D"/>
<path d="M745.681 446.412C745.681 445.775 745.867 445.138 746.242 444.501L765.254 410.246C766.108 408.581 767.58 407.747 769.666 407.747C770.734 407.747 771.872 408.106 773.075 408.821C774.278 409.538 774.88 410.415 774.88 411.453C774.88 411.799 774.745 412.219 774.479 412.712L759.077 441.175H768.462V433.02C768.462 431.984 768.97 431.195 769.987 430.65C771.002 430.107 772.232 429.835 773.676 429.835C775.12 429.835 776.349 430.107 777.366 430.65C778.381 431.195 778.891 431.984 778.891 433.02V441.175H782.66C783.675 441.175 784.477 441.595 785.067 442.433C785.655 443.271 785.949 444.272 785.949 445.435C785.949 446.506 785.615 447.472 784.946 448.334C784.277 449.195 783.515 449.625 782.66 449.625H778.891V458.756C778.891 459.737 778.381 460.511 777.366 461.078C776.349 461.645 775.12 461.929 773.676 461.929C772.285 461.929 771.069 461.646 770.026 461.078C768.984 460.511 768.462 459.737 768.462 458.756V449.625H749.211C748.194 449.625 747.351 449.334 746.683 448.752C746.014 448.17 745.681 447.39 745.681 446.412Z" fill="#1C1F9D"/>
<path fill-rule="evenodd" clip-rule="evenodd" d="M673.911 322H829.847C844.711 322 856.803 333.174 856.803 346.908V510.762C856.803 524.385 844.808 535.469 830.064 535.469H757.604C758.847 541.1 764.248 545.352 770.705 545.352C783.974 545.352 794.769 555.327 794.769 567.588V570.059C794.769 572.787 792.375 575 789.422 575H650.381C647.428 575 645.033 572.787 645.033 570.059V567.588C645.033 555.327 655.829 545.352 669.098 545.352C675.554 545.352 680.956 541.1 682.198 535.469H609.739C594.995 535.469 583 524.385 583 510.762V346.996C583 333.213 595.135 322 610.051 322H673.911ZM846.108 371.414H593.695V495.938H846.108V371.414ZM829.847 331.883C838.813 331.883 846.108 338.623 846.108 346.908V361.531H698.607L682.564 331.883H829.847ZM670.606 331.883H610.051C601.033 331.883 593.695 338.663 593.695 346.996V361.531H686.649L681.302 351.648H631.129C628.183 351.648 625.782 349.43 625.782 346.707C625.782 343.984 628.183 341.766 631.129 341.766H675.954L670.606 331.883ZM750.712 545.352H731.399C728.452 545.352 726.051 547.57 726.051 550.293C726.051 553.016 728.452 555.234 731.399 555.234H770.705C777.161 555.234 782.563 559.486 783.806 565.117H655.997C657.24 559.486 662.642 555.234 669.098 555.234C681.464 555.234 691.681 546.572 693.015 535.469H746.788C747.224 539.097 748.613 542.461 750.712 545.352ZM830.064 525.586C838.911 525.586 846.108 518.936 846.108 510.762V505.82H593.695V510.762C593.695 518.936 600.892 525.586 609.739 525.586H687.815H751.988H830.064Z" fill="#1C1F9D"/>
<path d="M830.065 351.648C833.016 351.648 835.412 349.435 835.412 346.707C835.412 343.979 833.016 341.766 830.065 341.766C827.112 341.766 824.717 343.979 824.717 346.707C824.717 349.435 827.112 351.648 830.065 351.648Z" fill="#1C1F9D"/>
<path d="M808.674 351.648C811.626 351.648 814.021 349.435 814.021 346.707C814.021 343.979 811.626 341.766 808.674 341.766C805.721 341.766 803.326 343.979 803.326 346.707C803.326 349.435 805.721 351.648 808.674 351.648Z" fill="#1C1F9D"/>
<path d="M787.283 351.648C790.235 351.648 792.63 349.435 792.63 346.707C792.63 343.979 790.235 341.766 787.283 341.766C784.33 341.766 781.935 343.979 781.935 346.707C781.935 349.435 784.33 351.648 787.283 351.648Z" fill="#1C1F9D"/>
<path d="M710.008 555.234C712.955 555.234 715.356 553.016 715.356 550.293C715.356 547.57 712.955 545.352 710.008 545.352C707.062 545.352 704.66 547.57 704.66 550.293C704.66 553.016 707.062 555.234 710.008 555.234Z" fill="#1C1F9D"/>
<path d="M609.739 351.648C612.685 351.648 615.086 349.43 615.086 346.707C615.086 343.984 612.685 341.766 609.739 341.766C606.792 341.766 604.391 343.984 604.391 346.707C604.391 349.43 606.792 351.648 609.739 351.648Z" fill="#1C1F9D"/>
</g>
<ellipse cx="1376" cy="476.5" rx="451" ry="617.5" fill="#FDEFEE"/>
<ellipse cx="87" cy="512.5" rx="451" ry="617.5" fill="#FDEFEE"/>
</g>
<defs>
<clipPath id="clip0_345_1179">
<rect width="1440" height="1024" fill="white"/>
</clipPath>
<clipPath id="clip1_345_1179">
<rect width="674" height="382" fill="white" transform="translate(383 322)"/>
</clipPath>
</defs>
</svg>
