<svg width="126" height="56" viewBox="0 0 126 56" fill="none" xmlns="http://www.w3.org/2000/svg">
<path d="M118.926 31.531C117.674 31.531 116.582 31.2296 115.649 30.6269C114.716 30.0242 113.992 29.1811 113.476 28.0975C112.96 27.0138 112.702 25.7476 112.702 24.2987C112.702 22.8437 112.96 21.5714 113.476 20.4817C113.992 19.392 114.716 18.5458 115.649 17.9431C116.582 17.3404 117.674 17.0391 118.926 17.0391C120.178 17.0391 121.27 17.3404 122.203 17.9431C123.136 18.5458 123.86 19.392 124.376 20.4817C124.892 21.5714 125.15 22.8437 125.15 24.2987C125.15 25.7476 124.892 27.0138 124.376 28.0975C123.86 29.1811 123.136 30.0242 122.203 30.6269C121.27 31.2296 120.178 31.531 118.926 31.531ZM118.935 29.2389C119.746 29.2389 120.418 29.0137 120.951 28.5632C121.484 28.1127 121.878 27.513 122.133 26.7642C122.394 26.0155 122.525 25.1906 122.525 24.2896C122.525 23.3947 122.394 22.5728 122.133 21.824C121.878 21.0692 121.484 20.4634 120.951 20.0068C120.418 19.5503 119.746 19.322 118.935 19.322C118.118 19.322 117.44 19.5503 116.901 20.0068C116.367 20.4634 115.97 21.0692 115.71 21.824C115.455 22.5728 115.327 23.3947 115.327 24.2896C115.327 25.1906 115.455 26.0155 115.71 26.7642C115.97 27.513 116.367 28.1127 116.901 28.5632C117.44 29.0137 118.118 29.2389 118.935 29.2389Z" fill="#FF6767"/>
<path d="M101.609 31.2484H95.8457V12.5469H101.791C103.536 12.5469 105.034 12.9213 106.285 13.6701C107.537 14.4128 108.496 15.4812 109.162 16.8753C109.835 18.2633 110.171 19.9283 110.171 21.8703C110.171 23.8183 109.832 25.4925 109.154 26.8927C108.482 28.2928 107.508 29.3704 106.233 30.1253C104.958 30.874 103.417 31.2484 101.609 31.2484ZM98.5317 28.7829H101.461C102.817 28.7829 103.944 28.515 104.842 27.9793C105.741 27.4375 106.413 26.6552 106.859 25.6325C107.305 24.6037 107.528 23.3496 107.528 21.8703C107.528 20.4031 107.305 19.1582 106.859 18.1354C106.419 17.1127 105.761 16.3365 104.886 15.8069C104.011 15.2772 102.924 15.0124 101.626 15.0124H98.5317V28.7829Z" fill="#FF6767"/>
<path d="M92.173 22.1641V24.5292H84.2803V22.1641H92.173Z" fill="#FF6767"/>
<path d="M75.1813 31.531C73.9296 31.531 72.8372 31.2296 71.9042 30.6269C70.9713 30.0242 70.2469 29.1811 69.7311 28.0975C69.2154 27.0138 68.9575 25.7476 68.9575 24.2987C68.9575 22.8437 69.2154 21.5714 69.7311 20.4817C70.2469 19.392 70.9713 18.5458 71.9042 17.9431C72.8372 17.3404 73.9296 17.0391 75.1813 17.0391C76.433 17.0391 77.5253 17.3404 78.4583 17.9431C79.3913 18.5458 80.1157 19.392 80.6314 20.4817C81.1472 21.5714 81.405 22.8437 81.405 24.2987C81.405 25.7476 81.1472 27.0138 80.6314 28.0975C80.1157 29.1811 79.3913 30.0242 78.4583 30.6269C77.5253 31.2296 76.433 31.531 75.1813 31.531ZM75.19 29.2389C76.0013 29.2389 76.6735 29.0137 77.2066 28.5632C77.7397 28.1127 78.1338 27.513 78.3888 26.7642C78.6495 26.0155 78.7799 25.1906 78.7799 24.2896C78.7799 23.3947 78.6495 22.5728 78.3888 21.824C78.1338 21.0692 77.7397 20.4634 77.2066 20.0068C76.6735 19.5503 76.0013 19.322 75.19 19.322C74.3729 19.322 73.6949 19.5503 73.1559 20.0068C72.6228 20.4634 72.2259 21.0692 71.9651 21.824C71.7101 22.5728 71.5826 23.3947 71.5826 24.2896C71.5826 25.1906 71.7101 26.0155 71.9651 26.7642C72.2259 27.513 72.6228 28.1127 73.1559 28.5632C73.6949 29.0137 74.3729 29.2389 75.19 29.2389Z" fill="#FF6767"/>
<path d="M54.8804 14.9759V12.5469H68.6578V14.9759H63.1034V31.2484H60.4261V14.9759H54.8804Z" fill="#FF6767"/>
<path d="M40.3285 45.0004L37.8978 43.5898V38.6894C37.8978 38.5514 37.8433 38.4191 37.7462 38.3216C37.6492 38.2241 37.5175 38.1693 37.3802 38.1693C37.243 38.1693 37.1113 38.2241 37.0142 38.3216C36.9172 38.4191 36.8626 38.5514 36.8626 38.6894V43.8905C36.8626 43.9818 36.8866 44.0714 36.932 44.1505C36.9774 44.2296 37.0428 44.2952 37.1214 44.3409L39.8109 45.9012C39.8695 45.9357 39.9345 45.9582 40.0019 45.9673C40.0693 45.9765 40.1378 45.972 40.2035 45.9543C40.2692 45.9366 40.3307 45.906 40.3845 45.8642C40.4383 45.8224 40.4833 45.7703 40.5169 45.7108C40.5856 45.5915 40.6043 45.4496 40.569 45.3164C40.5337 45.1832 40.4472 45.0695 40.3285 45.0004ZM37.3802 33.4883C31.6629 33.4883 27.0283 38.1453 27.0283 43.8905C27.0283 49.6356 31.6629 54.2926 37.3802 54.2926C43.0945 54.2864 47.7259 49.6325 47.7321 43.8905C47.7321 38.1453 43.0976 33.4883 37.3802 33.4883ZM37.3802 53.2524C36.1567 53.2524 34.9452 53.0103 33.8149 52.5398C32.6845 52.0693 31.6575 51.3797 30.7923 50.5104C29.9272 49.641 29.2409 48.609 28.7727 47.4731C28.3045 46.3373 28.0635 45.1199 28.0635 43.8905C28.0635 42.661 28.3045 41.4436 28.7727 40.3078C29.2409 39.1719 29.9272 38.1399 30.7923 37.2706C31.6575 36.4012 32.6845 35.7116 33.8149 35.2411C34.9452 34.7707 36.1567 34.5285 37.3802 34.5285C39.8503 34.5313 42.2185 35.5185 43.9651 37.2736C45.7118 39.0287 46.6942 41.4084 46.697 43.8905C46.697 46.3734 45.7154 48.7547 43.9681 50.5104C42.2209 52.2661 39.8512 53.2524 37.3802 53.2524Z" fill="#888888"/>
<path fill-rule="evenodd" clip-rule="evenodd" d="M26.1284 44.3633C26.1284 38.3287 30.9922 33.4883 36.9304 33.4883C42.8687 33.4883 47.7324 38.3287 47.7324 44.3633C47.7259 50.394 42.8659 55.2318 36.9312 55.2383C30.993 55.2383 26.1284 50.3978 26.1284 44.3633ZM36.9299 36.1539C35.8485 36.1539 34.7782 36.3679 33.7806 36.7828C32.7828 37.1977 31.8781 37.8051 31.1173 38.569C30.3566 39.3327 29.7547 40.2378 29.3447 41.2317C28.9347 42.2255 28.7241 43.2895 28.7241 44.3633C28.7241 45.4371 28.9347 46.5011 29.3447 47.4949C29.7547 48.4888 30.3566 49.3938 31.1173 50.1576C31.8781 50.9214 32.7828 51.5288 33.7806 51.9438C34.7784 52.3588 35.8488 52.5727 36.9304 52.5727C39.1161 52.5727 41.2066 51.7007 42.7435 50.1576C44.2793 48.6157 45.1365 46.5312 45.1367 44.3642C45.1343 42.1974 44.2762 40.1137 42.7406 38.5719C41.2041 37.0293 39.1149 36.1564 36.9299 36.1539ZM36.0231 38.388C36.2685 38.1416 36.5954 38.0083 36.9304 38.0083C37.2654 38.0083 37.5923 38.1416 37.8377 38.388C38.0842 38.6354 38.2283 38.9776 38.2283 39.3411V43.5848L40.1677 44.7094C40.4632 44.8814 40.6884 45.1703 40.7809 45.5189C40.8735 45.8675 40.8238 46.2377 40.6471 46.5459C40.5603 46.6985 40.4454 46.8303 40.3105 46.935C40.1747 47.0404 40.021 47.1165 39.8586 47.1603C39.6963 47.204 39.5274 47.2149 39.3613 47.1924C39.1962 47.1701 39.036 47.1151 38.8898 47.0296L36.2924 45.5239C36.2924 45.5239 36.2924 45.5239 36.2924 45.5239C36.0964 45.4103 35.9301 45.2448 35.8129 45.0411C35.6956 44.8371 35.6326 44.6032 35.6326 44.3633V39.3411C35.6326 38.9776 35.7767 38.6354 36.0231 38.388Z" fill="#FF6767"/>
<path d="M26.2101 4.44342H22.2821V3.09249C22.28 2.37657 22.0035 1.69058 21.5128 1.18434C21.0222 0.67811 20.3573 0.392763 19.6634 0.390625H9.18877C8.49489 0.392763 7.83003 0.67811 7.33938 1.18434C6.84873 1.69058 6.57217 2.37657 6.5701 3.09249V4.44342H2.6421C1.94823 4.44556 1.28336 4.7309 0.792716 5.23714C0.30207 5.74337 0.0255098 6.42936 0.0234375 7.14528V35.5149C0.0255098 36.2308 0.30207 36.9168 0.792716 37.423C1.28336 37.9292 1.94823 38.2146 2.6421 38.2167H14.4261V35.5149H2.6421V7.14528H6.5701V11.1981H22.2821V7.14528H26.2101V22.0055H28.8288V7.14528C28.8267 6.42936 28.5501 5.74337 28.0595 5.23714C27.5688 4.7309 26.904 4.44556 26.2101 4.44342ZM19.6634 8.49621H9.18877V3.09249H19.6634V8.49621Z" fill="#FF6767"/>
</svg>
