<svg width="267" height="267" viewBox="0 0 267 267" fill="none" xmlns="http://www.w3.org/2000/svg">
<path d="M118.333 221.875H147.917V192.292H118.333V221.875ZM133.125 44.375C100.583 44.375 73.9583 71 73.9583 103.542H103.542C103.542 87.2708 116.854 73.9583 133.125 73.9583C149.396 73.9583 162.708 87.2708 162.708 103.542C162.708 133.125 118.333 130.167 118.333 177.5H147.917C147.917 144.958 192.292 140.521 192.292 103.542C192.292 71 165.667 44.375 133.125 44.375ZM236.667 29.5833V236.667H29.5833V29.5833H236.667ZM236.667 0H29.5833C13.3125 0 0 13.3125 0 29.5833V236.667C0 252.938 13.3125 266.25 29.5833 266.25H236.667C252.938 266.25 266.25 252.938 266.25 236.667V29.5833C266.25 13.3125 252.938 0 236.667 0Z" fill="#E94A47"/>
</svg>
