<svg width="38" height="35" viewBox="0 0 38 35" fill="none" xmlns="http://www.w3.org/2000/svg">
<path d="M7.6 35V31.1111L9.5 29.1667H3.8C2.755 29.1667 1.86073 28.7862 1.1172 28.0253C0.373667 27.2644 0.00126667 26.3485 0 25.2778V3.88889C0 2.81944 0.3724 1.90426 1.1172 1.14333C1.862 0.382407 2.75627 0.0012963 3.8 0H34.2C35.245 0 36.1399 0.381111 36.8847 1.14333C37.6295 1.90556 38.0013 2.82074 38 3.88889V25.2778C38 26.3472 37.6282 27.2631 36.8847 28.0253C36.1412 28.7875 35.2463 29.168 34.2 29.1667H28.5L30.4 31.1111V35H7.6ZM3.8 25.2778H34.2V3.88889H3.8V25.2778Z" fill="#B1B1B1"/>
</svg>
