<svg width="191" height="191" viewBox="0 0 191 191" fill="none" xmlns="http://www.w3.org/2000/svg">
<path fill-rule="evenodd" clip-rule="evenodd" d="M95.4998 19.1668C82.1487 19.1644 69.0305 22.6637 57.4544 29.3156C45.8784 35.9675 36.2495 45.5392 29.5289 57.0754C22.8082 68.6116 19.2308 81.7088 19.1537 95.0597C19.0767 108.411 22.5027 121.548 29.0898 133.161C33.542 127.375 39.2653 122.69 45.8171 119.469C52.369 116.247 59.5739 114.576 66.8748 114.583H124.125C131.426 114.576 138.631 116.247 145.182 119.469C151.734 122.69 157.458 127.375 161.91 133.161C168.497 121.548 171.923 108.411 171.846 95.0597C171.769 81.7088 168.191 68.6116 161.471 57.0754C154.75 45.5392 145.121 35.9675 133.545 29.3156C121.969 22.6637 108.851 19.1644 95.4998 19.1668ZM171.289 153.475C184.047 136.844 190.947 116.461 190.916 95.5002C190.916 42.8015 148.198 0.0834961 95.4998 0.0834961C42.8012 0.0834961 0.0831152 42.8015 0.0831152 95.5002C0.051614 116.461 6.95221 136.844 19.7103 153.475L19.6626 153.647L23.0499 157.588C31.9989 168.05 43.1102 176.448 55.6178 182.202C68.1255 187.956 81.7321 190.929 95.4998 190.917C114.844 190.952 133.737 185.076 149.649 174.076C156.432 169.389 162.583 163.847 167.95 157.588L171.337 153.647L171.289 153.475ZM95.4998 38.2502C87.908 38.2502 80.6271 41.266 75.2589 46.6342C69.8906 52.0025 66.8748 59.2833 66.8748 66.8752C66.8748 74.467 69.8906 81.7479 75.2589 87.1161C80.6271 92.4843 87.908 95.5002 95.4998 95.5002C103.092 95.5002 110.372 92.4843 115.741 87.1161C121.109 81.7479 124.125 74.467 124.125 66.8752C124.125 59.2833 121.109 52.0025 115.741 46.6342C110.372 41.266 103.092 38.2502 95.4998 38.2502Z" fill="#E94A47"/>
</svg>
